<svg width="128" height="128" viewBox="0 0 128 128" fill="none" xmlns="http://www.w3.org/2000/svg" role="img" aria-labelledby="title desc">
  <title id="title">SouqAgent Pay mark</title>
  <desc id="desc">A professional stablecoin agent commerce logo mark with an S route, orbit, and settlement star.</desc>
  <rect width="128" height="128" rx="28" fill="#090909"/>
  <path d="M25 70C33 48 52 36 74 37C88 38 100 44 106 55" stroke="#FFD80D" stroke-width="8" stroke-linecap="round"/>
  <path d="M103 58C95 80 76 92 54 91C40 90 28 84 22 73" stroke="#FFFFFF" stroke-width="8" stroke-linecap="round"/>
  <path d="M40 64C51 56 77 55 88 64C77 73 51 72 40 64Z" fill="#FFD80D"/>
  <circle cx="64" cy="64" r="9" fill="#090909"/>
  <circle cx="64" cy="64" r="4" fill="#FFD80D"/>
  <path d="M97 25V43" stroke="#FFD80D" stroke-width="5" stroke-linecap="round"/>
  <path d="M88 34H106" stroke="#FFD80D" stroke-width="5" stroke-linecap="round"/>
  <path d="M91 28L103 40" stroke="#FFD80D" stroke-width="5" stroke-linecap="round"/>
  <path d="M103 28L91 40" stroke="#FFD80D" stroke-width="5" stroke-linecap="round"/>
</svg>
